<svg xmlns="http://www.w3.org/2000/svg" width="148.584" height="97.846" viewBox="0 0 148.584 97.846">
    <g id="graphic-tea1" transform="translate(-175.64 -538.572)">
        <path id="Path_1037" data-name="Path 1037" d="M0,0S57.281,16.284,66.611,38.74,55.679,80.189,55.679,80.189a22.116,22.116,0,0,0-2.4-14.234C49.32,58.995,36.9,54.89,36.9,54.89s8.688,8.293,10.84,14.89a22.87,22.87,0,0,1,0,12.988S22.51,84.276,12.875,63.414,0,0,0,0Z" transform="matrix(0.966, -0.259, 0.259, 0.966, 175.64, 556.448)" fill="#71ad7f"/>
        <path id="Path_1038" data-name="Path 1038" d="M48.019,0S8.194,11.951,1.707,28.431s7.6,30.418,7.6,30.418A17.042,17.042,0,0,1,10.976,48.4c2.753-5.108,11.385-8.12,11.385-8.12s-6.04,6.086-7.537,10.927a17.676,17.676,0,0,0,0,9.532s17.544,1.108,24.243-14.2S48.019,0,48.019,0Z" transform="matrix(0.891, 0.454, -0.454, 0.891, 281.438, 548.892)" fill="#71ad7f"/>
    </g>
</svg>