<svg class="mr-4 w-7 h-7" id="Group_17" data-name="Group 17" xmlns="http://www.w3.org/2000/svg" viewBox="0 0 23.929 25.052" fill="none">
    <path id="Path_1039" data-name="Path 1039" d="M.231,0H11.9a1.743,1.743,0,1,1,0,3.487H0Z" transform="translate(14.281 12.939) rotate(45)" fill="#fff"/>
    <path id="Path_1039_-_Outline" data-name="Path 1039 - Outline" d="M.231,0H11.9a1.743,1.743,0,1,1,0,3.487H0Z" transform="translate(14.281 12.939) rotate(45)" fill="#fff"/>
    <path id="Ellipse_7" data-name="Ellipse 7" d="M8.424,1.685a6.739,6.739,0,0,0-4.765,11.5,6.739,6.739,0,1,0,9.531-9.531A6.7,6.7,0,0,0,8.424,1.685M8.424,0A8.424,8.424,0,1,1,0,8.424,8.424,8.424,0,0,1,8.424,0Z" transform="translate(0 0)" fill="#fff"/>
</svg>